<svg width="775" height="671" viewBox="0 0 775 671" fill="none" xmlns="http://www.w3.org/2000/svg">
<g clip-path="url(#clip0_232_11869)">
<mask id="mask0_232_11869" style="mask-type:luminance" maskUnits="userSpaceOnUse" x="101" y="386" width="212" height="285">
<path d="M297.323 670.617L312.833 386.344L101.062 495.732L297.323 670.617Z" fill="white"/>
</mask>
<g mask="url(#mask0_232_11869)">
<path d="M312.833 386.344H101.062V670.612H312.833V386.344Z" fill="url(#paint0_linear_232_11869)"/>
</g>
<path fill-rule="evenodd" clip-rule="evenodd" d="M297.324 670.612L101.064 495.733L0.0976562 670.612H297.324Z" fill="#037C70"/>
<mask id="mask1_232_11869" style="mask-type:luminance" maskUnits="userSpaceOnUse" x="297" y="386" width="91" height="285">
<path d="M312.837 386.344L297.326 670.617L387.142 515.048L312.837 386.344Z" fill="white"/>
</mask>
<g mask="url(#mask1_232_11869)">
<path d="M387.142 386.344H297.326V670.612H387.142V386.344Z" fill="url(#paint1_linear_232_11869)"/>
</g>
<mask id="mask2_232_11869" style="mask-type:luminance" maskUnits="userSpaceOnUse" x="238" y="257" width="298" height="259">
<path d="M312.835 386.344L387.141 515.048L461.451 386.344L535.756 257.643H238.529L312.835 386.344Z" fill="white"/>
</mask>
<g mask="url(#mask2_232_11869)">
<path d="M535.756 257.643H238.529V515.053H535.756V257.643Z" fill="url(#paint2_linear_232_11869)"/>
</g>
<mask id="mask3_232_11869" style="mask-type:luminance" maskUnits="userSpaceOnUse" x="238" y="0" width="298" height="258">
<path d="M238.529 257.644H535.756L387.141 0.234253L238.529 257.644Z" fill="white"/>
</mask>
<g mask="url(#mask3_232_11869)">
<path d="M535.756 0.234253H238.529V257.644H535.756V0.234253Z" fill="url(#paint3_linear_232_11869)"/>
</g>
<mask id="mask4_232_11869" style="mask-type:luminance" maskUnits="userSpaceOnUse" x="461" y="386" width="213" height="285">
<path d="M461.451 386.344L476.957 670.617L673.218 495.732L461.451 386.344Z" fill="white"/>
</mask>
<g mask="url(#mask4_232_11869)">
<path d="M673.222 386.344H461.451V670.612H673.222V386.344Z" fill="url(#paint4_linear_232_11869)"/>
</g>
<mask id="mask5_232_11869" style="mask-type:luminance" maskUnits="userSpaceOnUse" x="387" y="386" width="90" height="285">
<path d="M476.957 670.617L461.451 386.344L387.141 515.048L476.957 670.617Z" fill="white"/>
</mask>
<g mask="url(#mask5_232_11869)">
<path d="M476.957 386.344H387.141V670.612H476.957V386.344Z" fill="url(#paint5_linear_232_11869)"/>
</g>
<path fill-rule="evenodd" clip-rule="evenodd" d="M673.218 495.733L476.957 670.612H774.188L673.218 495.733Z" fill="#037C70"/>
<mask id="mask6_232_11869" style="mask-type:luminance" maskUnits="userSpaceOnUse" x="101" y="257" width="212" height="239">
<path d="M101.062 495.732L312.833 386.344L238.528 257.643L101.062 495.732Z" fill="white"/>
</mask>
<g mask="url(#mask6_232_11869)">
<path d="M312.833 257.643H101.062V495.737H312.833V257.643Z" fill="url(#paint6_linear_232_11869)"/>
</g>
<mask id="mask7_232_11869" style="mask-type:luminance" maskUnits="userSpaceOnUse" x="517" y="257" width="190" height="214">
<path d="M706.993 470.33L584.195 257.644L517.82 372.614L706.993 470.33Z" fill="white"/>
</mask>
<g mask="url(#mask7_232_11869)">
<path d="M706.993 257.644H517.82V470.33H706.993V257.644Z" fill="url(#paint7_linear_232_11869)"/>
</g>
<mask id="mask8_232_11869" style="mask-type:luminance" maskUnits="userSpaceOnUse" x="610" y="198" width="73" height="154">
<path d="M682.951 351.991V198.032L610.877 239.644L682.951 351.991Z" fill="white"/>
</mask>
<g mask="url(#mask8_232_11869)">
<path d="M682.951 198.032H610.877V351.991H682.951V198.032Z" fill="url(#paint8_linear_232_11869)"/>
</g>
<mask id="mask9_232_11869" style="mask-type:luminance" maskUnits="userSpaceOnUse" x="563" y="146" width="89" height="80">
<path d="M563.064 146.762L651.226 197.663L603.572 225.175L563.064 146.762Z" fill="white"/>
</mask>
<g mask="url(#mask9_232_11869)">
<path d="M651.226 146.762H563.064V225.18H651.226V146.762Z" fill="url(#paint9_linear_232_11869)"/>
</g>
</g>
<defs>
<linearGradient id="paint0_linear_232_11869" x1="185.725" y1="560.047" x2="283.382" y2="414.794" gradientUnits="userSpaceOnUse">
<stop stop-color="#1F8A6D"/>
<stop offset="1" stop-color="#72B763"/>
</linearGradient>
<linearGradient id="paint1_linear_232_11869" x1="328.559" y1="428.551" x2="352.807" y2="605.753" gradientUnits="userSpaceOnUse">
<stop stop-color="#54A766"/>
<stop offset="1" stop-color="#037C70"/>
</linearGradient>
<linearGradient id="paint2_linear_232_11869" x1="390.044" y1="244.036" x2="384.827" y2="499.795" gradientUnits="userSpaceOnUse">
<stop stop-color="#83C161"/>
<stop offset="1" stop-color="#1F8A6D"/>
</linearGradient>
<linearGradient id="paint3_linear_232_11869" x1="384.07" y1="257.567" x2="392.366" y2="-89.6989" gradientUnits="userSpaceOnUse">
<stop stop-color="#BFE05A"/>
<stop offset="1" stop-color="#FDFDFD"/>
</linearGradient>
<linearGradient id="paint4_linear_232_11869" x1="546.109" y1="560.047" x2="643.766" y2="414.794" gradientUnits="userSpaceOnUse">
<stop stop-color="#1F8A6D"/>
<stop offset="1" stop-color="#72B763"/>
</linearGradient>
<linearGradient id="paint5_linear_232_11869" x1="418.373" y1="428.551" x2="442.622" y2="605.753" gradientUnits="userSpaceOnUse">
<stop stop-color="#54A766"/>
<stop offset="1" stop-color="#037C70"/>
</linearGradient>
<linearGradient id="paint6_linear_232_11869" x1="222.842" y1="418.514" x2="151.963" y2="231.988" gradientUnits="userSpaceOnUse">
<stop stop-color="#A0D05E"/>
<stop offset="1" stop-color="#BFDB90"/>
</linearGradient>
<linearGradient id="paint7_linear_232_11869" x1="615.518" y1="246.43" x2="609.922" y2="457.696" gradientUnits="userSpaceOnUse">
<stop stop-color="#83C161"/>
<stop offset="1" stop-color="#1F8A6D"/>
</linearGradient>
<linearGradient id="paint8_linear_232_11869" x1="652.164" y1="268.713" x2="771.477" y2="125.656" gradientUnits="userSpaceOnUse">
<stop stop-color="#BFE05A"/>
<stop offset="1" stop-color="white"/>
</linearGradient>
<linearGradient id="paint9_linear_232_11869" x1="570.527" y1="202.501" x2="703.379" y2="142.528" gradientUnits="userSpaceOnUse">
<stop stop-color="#BFE05A"/>
<stop offset="1" stop-color="white"/>
</linearGradient>
<clipPath id="clip0_232_11869">
<rect width="774.086" height="670.378" fill="white" transform="translate(0.0976562 0.234253)"/>
</clipPath>
</defs>
</svg>
